<svg xmlns="http://www.w3.org/2000/svg" xmlns:xlink="http://www.w3.org/1999/xlink" fill="none" version="1.1" width="40" height="40" viewBox="0 0 40 40"><clipPath id="master_svg0_49_453"><rect x="0" y="0" width="40" height="40" rx="0"/></clipPath><clipPath id="master_svg1_49_455"><rect x="0" y="0" width="40" height="40" rx="0"/></clipPath><g clip-path="url(#master_svg0_49_453)" style="mix-blend-mode:passthrough"><g><g clip-path="url(#master_svg1_49_455)" style="mix-blend-mode:passthrough"><g><g style="mix-blend-mode:passthrough"><path d="M19.999760412669275,40C31.045460412669275,40,39.999760412669275,31.0457,39.999760412669275,20C39.999760412669275,8.95431,31.045460412669275,0,19.999760412669275,0C8.954070412669275,0,-0.000239587330725044,8.95431,-0.000239587330725044,20C-0.000239587330725044,31.0457,8.954070412669275,40,19.999760412669275,40C19.999760412669275,40,19.999760412669275,40,19.999760412669275,40Z" fill="#D80027" fill-opacity="1"/></g><g style="mix-blend-mode:passthrough"><g><g style="mix-blend-mode:passthrough"><path d="M10.945346355438232,12.171947479248047C10.945346355438232,12.171947479248047,12.671906355438232,17.484447479248047,12.671906355438232,17.484447479248047C12.671906355438232,17.484447479248047,18.257846355438232,17.484447479248047,18.257846355438232,17.484447479248047C18.257846355438232,17.484447479248047,13.742246355438233,20.773507479248046,13.742246355438233,20.773507479248046C13.742246355438233,20.773507479248046,15.468746355438233,26.086047479248045,15.468746355438233,26.086047479248045C15.468746355438233,26.086047479248045,10.945346355438232,22.804747479248046,10.945346355438232,22.804747479248046C10.945346355438232,22.804747479248046,6.4219063554382325,26.086047479248045,6.4219063554382325,26.086047479248045C6.4219063554382325,26.086047479248045,8.156286355438233,20.773507479248046,8.156286355438233,20.773507479248046C8.156286355438233,20.773507479248046,3.6328463554382324,17.484447479248047,3.6328463554382324,17.484447479248047C3.6328463554382324,17.484447479248047,9.218786355438233,17.484447479248047,9.218786355438233,17.484447479248047C9.218786355438233,17.484447479248047,10.945346355438232,12.171947479248047,10.945346355438232,12.171947479248047C10.945346355438232,12.171947479248047,10.945346355438232,12.171947479248047,10.945346355438232,12.171947479248047Z" fill="#FFDA44" fill-opacity="1"/></g><g style="mix-blend-mode:passthrough"><path d="M23.71099865097046,30.976650599060058C23.71099865097046,30.976650599060058,22.390678650970457,29.351660599060057,22.390678650970457,29.351660599060057C22.390678650970457,29.351660599060057,20.43755965097046,30.10947059906006,20.43755965097046,30.10947059906006C20.43755965097046,30.10947059906006,21.570368650970458,28.351650599060058,21.570368650970458,28.351650599060058C21.570368650970458,28.351650599060058,20.25005865097046,26.71884059906006,20.25005865097046,26.71884059906006C20.25005865097046,26.71884059906006,22.27349865097046,27.257900599060058,22.27349865097046,27.257900599060058C22.27349865097046,27.257900599060058,23.414118650970458,25.50009059906006,23.414118650970458,25.50009059906006C23.414118650970458,25.50009059906006,23.52349865097046,27.59384059906006,23.52349865097046,27.59384059906006C23.52349865097046,27.59384059906006,25.55474865097046,28.132900599060058,25.55474865097046,28.132900599060058C25.55474865097046,28.132900599060058,23.59380865097046,28.882900599060058,23.59380865097046,28.882900599060058C23.59380865097046,28.882900599060058,23.71099865097046,30.976650599060058,23.71099865097046,30.976650599060058C23.71099865097046,30.976650599060058,23.71099865097046,30.976650599060058,23.71099865097046,30.976650599060058Z" fill="#FFDA44" fill-opacity="1"/></g><g style="mix-blend-mode:passthrough"><path d="M26.335973855438233,26.211004849853516C26.335973855438233,26.211004849853516,26.960973855438233,24.211004849853516,26.960973855438233,24.211004849853516C26.960973855438233,24.211004849853516,25.250033855438232,23.000064849853516,25.250033855438232,23.000064849853516C25.250033855438232,23.000064849853516,27.343783855438232,22.968814849853516,27.343783855438232,22.968814849853516C27.343783855438232,22.968814849853516,27.960973855438233,20.968814849853516,27.960973855438233,20.968814849853516C27.960973855438233,20.968814849853516,28.64065385543823,22.953184849853514,28.64065385543823,22.953184849853514C28.64065385543823,22.953184849853514,30.73440385543823,22.929754849853516,30.73440385543823,22.929754849853516C30.73440385543823,22.929754849853516,29.054723855438233,24.179754849853516,29.054723855438233,24.179754849853516C29.054723855438233,24.179754849853516,29.72659385543823,26.164124849853515,29.72659385543823,26.164124849853515C29.72659385543823,26.164124849853515,28.01565385543823,24.953184849853514,28.01565385543823,24.953184849853514C28.01565385543823,24.953184849853514,26.335973855438233,26.211004849853516,26.335973855438233,26.211004849853516C26.335973855438233,26.211004849853516,26.335973855438233,26.211004849853516,26.335973855438233,26.211004849853516Z" fill="#FFDA44" fill-opacity="1"/></g><g style="mix-blend-mode:passthrough"><path d="M29.875096205291747,14.67976088659668C29.875096205291747,14.67976088659668,28.95322620529175,16.56257688659668,28.95322620529175,16.56257688659668C28.95322620529175,16.56257688659668,30.45322620529175,18.023506886596678,30.45322620529175,18.023506886596678C30.45322620529175,18.023506886596678,28.38291620529175,17.72663688659668,28.38291620529175,17.72663688659668C28.38291620529175,17.72663688659668,27.461036205291748,19.60163688659668,27.461036205291748,19.60163688659668C27.461036205291748,19.60163688659668,27.10166620529175,17.53913688659668,27.10166620529175,17.53913688659668C27.10166620529175,17.53913688659668,25.023536205291748,17.242256886596678,25.023536205291748,17.242256886596678C25.023536205291748,17.242256886596678,26.88291620529175,16.26569688659668,26.88291620529175,16.26569688659668C26.88291620529175,16.26569688659668,26.523536205291748,14.19538688659668,26.523536205291748,14.19538688659668C26.523536205291748,14.19538688659668,28.023536205291748,15.65632688659668,28.023536205291748,15.65632688659668C28.023536205291748,15.65632688659668,29.875096205291747,14.67976088659668,29.875096205291747,14.67976088659668C29.875096205291747,14.67976088659668,29.875096205291747,14.67976088659668,29.875096205291747,14.67976088659668Z" fill="#FFDA44" fill-opacity="1"/></g><g style="mix-blend-mode:passthrough"><path d="M23.765704502410887,8.97663402557373C23.765704502410887,8.97663402557373,23.609454502410887,11.062574025573731,23.609454502410887,11.062574025573731C23.609454502410887,11.062574025573731,25.55476450241089,11.85163402557373,25.55476450241089,11.85163402557373C25.55476450241089,11.85163402557373,23.515704502410887,12.35163402557373,23.515704502410887,12.35163402557373C23.515704502410887,12.35163402557373,23.36726450241089,14.44538402557373,23.36726450241089,14.44538402557373C23.36726450241089,14.44538402557373,22.265694502410888,12.66413402557373,22.265694502410888,12.66413402557373C22.265694502410888,12.66413402557373,20.22663450241089,13.16413402557373,20.22663450241089,13.16413402557373C20.22663450241089,13.16413402557373,21.578194502410888,11.562574025573731,21.578194502410888,11.562574025573731C21.578194502410888,11.562574025573731,20.468822502410887,9.78913402557373,20.468822502410887,9.78913402557373C20.468822502410887,9.78913402557373,22.41413450241089,10.57819402557373,22.41413450241089,10.57819402557373C22.41413450241089,10.57819402557373,23.765704502410887,8.97663402557373,23.765704502410887,8.97663402557373C23.765704502410887,8.97663402557373,23.765704502410887,8.97663402557373,23.765704502410887,8.97663402557373Z" fill="#FFDA44" fill-opacity="1"/></g></g></g></g></g></g></g></svg>